<?xml version="1.0" encoding="iso-8859-1"?>
<!-- Generator: Adobe Illustrator 18.1.1, SVG Export Plug-In . SVG Version: 6.00 Build 0)  -->
<svg version="1.1" id="Capa_1" xmlns="http://www.w3.org/2000/svg" xmlns:xlink="http://www.w3.org/1999/xlink" x="0px" y="0px"
	 viewBox="0 0 456.339 456.339" style="enable-background:new 0 0 456.339 456.339;" xml:space="preserve">
<g>
	<path d="M195.155,337.833c-1.93,0-3.875-0.42-5.693-1.266c-4.717-2.21-7.732-6.952-7.732-12.162v-192.47
		c0-5.21,3.014-9.952,7.732-12.162c4.714-2.21,10.295-1.49,14.292,1.846l115.482,96.235c3.063,2.553,4.833,6.329,4.833,10.316
		c0,3.986-1.769,7.763-4.833,10.316l-115.482,96.235C201.296,336.77,198.24,337.833,195.155,337.833z M208.587,160.603v135.134
		l81.079-67.567L208.587,160.603z"/>
	<path d="M227.771,456.336c-38.232,0.007-76.687-9.533-111.516-29.143c-6.462-3.637-8.753-11.827-5.112-18.289
		c3.633-6.462,11.823-8.756,18.289-5.112c78.345,44.103,177.517,30.465,241.161-33.2c78.533-78.534,78.533-206.31,0-284.844
		c-78.534-78.547-206.321-78.54-284.851,0c-78.53,78.534-78.53,206.31,0,284.844c5.245,5.245,5.245,13.75,0,18.995
		c-5.238,5.245-13.743,5.245-18.988,0c-89.003-89.01-89.003-233.824,0-322.834c89.007-88.996,233.817-89.003,322.834,0
		c89.003,89.01,89.003,233.824,0,322.834C345.743,433.431,287.022,456.336,227.771,456.336z"/>
</g>
<g>
</g>
<g>
</g>
<g>
</g>
<g>
</g>
<g>
</g>
<g>
</g>
<g>
</g>
<g>
</g>
<g>
</g>
<g>
</g>
<g>
</g>
<g>
</g>
<g>
</g>
<g>
</g>
<g>
</g>
</svg>
